<?xml version="1.0" encoding="iso-8859-1"?>
<!-- Generator: Adobe Illustrator 19.0.0, SVG Export Plug-In . SVG Version: 6.00 Build 0)  -->
<svg version="1.1" id="Capa_1" xmlns="http://www.w3.org/2000/svg" xmlns:xlink="http://www.w3.org/1999/xlink" x="0px" y="0px"
	 viewBox="0 0 512 512" style="enable-background:new 0 0 512 512;" xml:space="preserve">
<g>
	<g>
		<g>
			<rect x="180.07" y="82.09" width="15" height="15"/>
			<rect x="180.07" y="107.09" width="15" height="15"/>
			<rect x="180.07" y="57.09" width="15" height="15"/>
			<rect x="180.07" y="32.09" width="15" height="15"/>
			<rect x="206.44" y="32.09" width="15" height="15"/>
			<rect x="206.44" y="82.09" width="15" height="15"/>
			<rect x="206.44" y="57.09" width="15" height="15"/>
			<rect x="206.44" y="107.09" width="15" height="15"/>
			<path d="M244.025,419.5H183.85v60.176h60.175V419.5z M229.025,464.676H198.85V434.5h30.175V464.676z"/>
			<rect x="180.07" y="175.44" width="15" height="15"/>
			<rect x="180.07" y="200.44" width="15" height="150.56"/>
			<rect x="180.07" y="150.44" width="15" height="15"/>
			<rect x="278.97" y="30.469" width="15" height="30"/>
			<rect x="343.19" y="43.17" width="15" height="15"/>
			<rect x="368.19" y="43.17" width="15" height="15"/>
			<rect x="303.27" y="43.17" width="29.917" height="15"/>
			<rect x="343.19" y="204.66" width="15" height="15"/>
			<rect x="310.52" y="204.66" width="22.667" height="15"/>
			<rect x="368.19" y="204.66" width="15" height="15"/>
			<path d="M299.44,78.08l144.32,0.04l-12.17-39.551l-0.01-0.02l-61.29-20.1l-0.04-0.021l-4.66,14.21l-0.02,0.04l0.02,0.39
				l0.08-0.35l53.86,17.66l3.92,12.74H274.03V15h37.62l39.72,13.03l0.04,0.01l4.68-14.25L314.05,0h-74.88l-0.05,14.95l19.9,0.05
				v63.069h0.01v32.637h-21.508v15h21.508v35.092h-21.508v15h21.508v35.093h-21.508v15h21.508v35.092h-21.508v15h21.508v35.092
				h-21.508v15h21.508v4.075h0.001l-0.01,35.138h-21.499v15h21.508V497h-90.18V15h55.32l0.05-14.95L153.85,0v0.031L128.44,0v36.97
				h-7.53l-0.05,14.95l22.58,0.05V15h10.41v48.12h-57.1l-5.12-11.15h14.27l0.05-14.95l-37.71-0.05l18.87,41.12l66.74,0.025v43.516
				l-66.72-0.041l-18.86,41.08l-0.03,0.07h60.2v21.979l-8.75-0.009v144.12l15,0.05V199.71h19.16v154.46h-19.16v-10.34l-15-0.05
				v25.34l34.16,0.035V511.95L274.03,512V369.17h25.81c10.47-0.01,20.3-4.08,27.7-11.48c7.39-7.39,11.47-17.229,11.47-27.689
				c0-4.67-0.82-9.23-2.42-13.57c-1.55-4.189-3.79-8.06-6.66-11.51c-5.78-6.92-13.79-11.66-22.59-13.37v-28.746l6.7,0.015
				l117.52-38.539l12.18-39.511l0.02-0.06H299.44V78.08z M153.85,184.71h-10.41v-36.97H91.63l5.12-11.15h57.1V184.71z
				 M307.34,199.71h116.11l-3.92,12.729l-107.88,35.38h-4.31V199.71z M274.03,78.109h10.41V184.71h-10.41V78.109z M299.84,305.83
				c13.3,0.029,24.14,10.87,24.17,24.17c-0.024,10.682-7.024,19.771-16.667,22.953v-34.379h-15v35.596H274.03v-9.021h-0.01V330.2
				h0.01V199.71h18.31v106.07L299.84,305.83z"/>
		</g>
	</g>
</g>
<g>
</g>
<g>
</g>
<g>
</g>
<g>
</g>
<g>
</g>
<g>
</g>
<g>
</g>
<g>
</g>
<g>
</g>
<g>
</g>
<g>
</g>
<g>
</g>
<g>
</g>
<g>
</g>
<g>
</g>
</svg>
