<?xml version="1.0"?>
<svg viewBox="0 0 1024 1024" version="1.1" xmlns="http://www.w3.org/2000/svg">
<g id="layer1" >
<path
	fill="#FFFFFF" fill-opacity="1.0"
	d="M 531.4398 113.2239 C 752.8068 113.2239 932.2603 292.6773 932.2603 514.0443 C 932.2603 735.4113 752.8068 914.8647 531.4398 914.8647 C 310.0728 914.8647 130.6194 735.4113 130.6194 514.0443 C 130.6194 292.6773 310.0728 113.2239 531.4398 113.2239 z M 529.0153 67.1348 C 280.9839 67.1348 79.9147 268.2039 79.9147 516.2354 C 79.9147 764.2668 280.9839 965.3359 529.0153 965.3359 C 777.0467 965.3359 978.1158 764.2668 978.1158 516.2354 C 978.1158 268.2039 777.0467 67.1348 529.0153 67.1348 z " />
<path
	fill="#FFFFFF" fill-opacity="1.0"
	d="M 535.9255 171.8534 C 459.1252 171.8534 390.7867 208.0833 347.0691 264.3844 L 396.4883 297.2661 C 429.4210 257.3947 479.2384 231.9841 534.9907 231.9841 C 634.1539 231.9841 714.5416 312.3718 714.5416 411.5349 C 714.5416 505.0900 642.9894 581.9332 551.6238 590.3256 L 517.6940 591.3092 C 515.6917 591.2088 513.7438 591.1619 511.8457 591.1619 C 508.8057 591.1619 505.8936 591.2823 503.0906 591.4966 L 503.1424 647.5543 L 503.1424 757.7267 L 580.6245 757.7267 L 580.6245 645.6110 C 691.2377 624.6809 774.8911 527.5191 774.8911 410.8189 C 774.8911 278.8419 667.9025 171.8534 535.9255 171.8534 z " />
<circle cx="540.33685" cy="824.9314" r="40.28766" fill="#FFFFFF" fill-opacity="1.0" />
</g>
</svg>